<svg xmlns="http://www.w3.org/2000/svg" viewBox="12 260 120 130">
  <path fill="#9B65C3" d="M22.2,338.2c1.7,11.1,6.9,21.1,14.4,28.6l17.5-17.5c0-17.7,9.2-34.9,25.6-44.4L22.2,338.2z"/>
  <path fill="#9B65C3" d="M54.1,349.3c-8.7,0-17.5-2.2-25.6-6.9c-2.2-1.3-4.3-2.7-6.3-4.3c1.7,11.1,6.9,21.1,14.4,28.6L54.1,349.3z"/>
  <path fill="#BE63C5" d="M54.1,349.3L54.1,349.3l-17.5,17.5c7.6,7.6,17.5,12.8,28.6,14.4l33.2-57.5C89,340.1,71.8,349.3,54.1,349.3"/>
  <path fill="#BF63C6" d="M61,375c-4.7-8.1-6.9-16.9-6.9-25.6l-17.5,17.5c7.6,7.6,17.5,12.8,28.6,14.4C63.7,379.3,62.3,377.2,61,375"/>
  <path fill="#3278B1" d="M119.3,282.1L79.8,305c-16.4,9.5-35.9,8.8-51.2,0c-4.4,7.5-6.9,16.3-6.9,25.6c0,2.6,0.2,5.1,0.6,7.6c2,1.6,4.1,3,6.3,4.3c8.1,4.7,16.9,6.9,25.6,6.9l66.2-66.2C120,282.8,119.7,282.4,119.3,282.1"/>
  <path fill="#3278B2" d="M28.5,342.5c8.1,4.7,16.9,6.9,25.6,6.9c0-17.7,9.2-34.9,25.6-44.4l-57.6,33.2C24.2,339.7,26.3,341.2,28.5,342.5"/>
  <path fill="#45A4EC" d="M28.5,305c-4.4,7.5-6.9,16.3-6.9,25.6c0,2.6,0.2,5.1,0.6,7.6L79.8,305C63.3,314.4,43.8,313.8,28.5,305"/>
  <path fill="#19BB7D" d="M120.4,283.1c-0.3-0.3-0.7-0.7-1.1-1c-0.5-0.4-1-0.8-1.6-1.1c-1.9-1.1-4.1-1.7-6.4-1.7H72.9c-19,0-35.5,10.3-44.4,25.6c15.3,8.8,34.8,9.5,51.2,0c-16.4,9.5-25.6,26.7-25.6,44.4c17.7,0,34.9-9.2,44.4-25.6l22.8-39.5C121,283.8,120.7,283.4,120.4,283.1"/>
  <path fill="#08C7FB" d="M79.8,305l39.5-22.8c-0.5-0.4-1-0.8-1.6-1.1L28.5,305C43.8,313.8,63.3,314.4,79.8,305"/>
  <path fill="#59F2F6" d="M111.3,279.3H72.9c-19,0-35.5,10.3-44.4,25.6l89.2-23.9C115.8,280,113.7,279.3,111.3,279.3"/>
  <path fill="#DA3757" d="M98.5,323.7l22.8-39.5c-0.3-0.4-0.6-0.7-1-1.1l-66.2,66.2c0,8.7,2.2,17.5,6.9,25.6c1.3,2.2,2.7,4.3,4.3,6.3c2.5,0.4,5,0.6,7.6,0.6c9.3,0,18.1-2.5,25.6-6.9C89.7,359.6,89,340.1,98.5,323.7"/>
  <path fill="#D33C4E" d="M54.1,349.3L54.1,349.3c0,8.7,2.2,17.5,6.9,25.6c1.3,2.2,2.7,4.3,4.3,6.3l33.2-57.5C89,340.1,71.8,349.3,54.1,349.3"/>
  <path fill="#EE5A24" d="M98.5,323.7l-33.2,57.6c2.5,0.4,5,0.6,7.6,0.6c9.3,0,18.1-2.5,25.6-6.9C89.7,359.6,89,340.1,98.5,323.7"/>
  <path fill="#8BDF55" d="M122.4,285.8c-0.3-0.6-0.7-1.1-1.1-1.6c-0.3-0.4-0.6-0.7-1-1.1c-0.3-0.3-0.7-0.7-1.1-1L79.8,305c-16.4,9.5-25.6,26.7-25.6,44.4c17.7,0,34.9-9.2,44.4-25.6c-9.5,16.4-8.8,35.9,0,51.2c15.3-8.9,25.6-25.4,25.6-44.4v-38.4C124.1,289.8,123.5,287.6,122.4,285.8"/>
  <path fill="#25C16F" d="M119.3,282.1L79.8,305c-16.4,9.5-25.6,26.7-25.6,44.4l66.2-66.2C120,282.8,119.7,282.4,119.3,282.1"/>
  <path fill="#8BDF55" d="M54.1,349.3c17.7,0,34.9-9.2,44.4-25.6l22.8-39.5c-0.3-0.4-0.6-0.7-1-1.1L54.1,349.3z"/>
  <path fill="#FFBB00" d="M121.3,284.2l-22.8,39.5c-9.5,16.4-8.8,35.9,0,51.2l23.9-89.2C122.1,285.2,121.7,284.7,121.3,284.2"/>
  <path fill="#FFA800" d="M98.5,375c15.3-8.9,25.6-25.4,25.6-44.4v-38.4c0-2.3-0.6-4.5-1.7-6.4L98.5,375z"/>
</svg>