<!-- Auxx.ai logo — extracted from apps/homepage/src/components/logo.tsx -->
<!-- Blue circle background (#69b3fe), white arch + three rounded squares. -->
<svg xmlns="http://www.w3.org/2000/svg" viewBox="0 0 68 68" width="512" height="512">
  <circle stroke-width="0" fill="#69b3fe" cx="34" cy="33.5" r="34"/>
  <g>
    <path stroke-width="0" fill="#fff" d="M7.74,39.14c-.69,0-1.39-.24-1.95-.72-1.37-1.17-1.29-3.34-.02-4.62L31.78,7.59c1.19-1.2,3.13-1.2,4.32,0l26.06,26.25c1.05,1.05,1.31,2.73.47,3.96-1.11,1.61-3.31,1.75-4.62.44l-24.04-24.22s-.04-.02-.06,0l-24.04,24.22c-.59.59-1.36.89-2.13.89Z"/>
    <rect stroke-width="0" fill="#fff" x="18.88" y="31.89" width="13.68" height="13.79" rx="2.46" ry="2.46"/>
    <rect stroke-width="0" fill="#fff" x="33.93" y="31.89" width="13.68" height="13.79" rx="2.39" ry="2.39"/>
    <rect stroke-width="0" fill="#fff" x="33.93" y="47.06" width="13.68" height="13.79" rx="2.5" ry="2.5"/>
  </g>
</svg>
